<mxfile host="65bd71144e">
    <diagram id="cmT2RVxhU9K76khgNeyA" name="Diagrama Entidad Relacion Hospital">
        <mxGraphModel dx="4517" dy="2778" grid="1" gridSize="10" guides="1" tooltips="1" connect="1" arrows="1" fold="1" page="1" pageScale="1" pageWidth="827" pageHeight="1169" math="0" shadow="0">
            <root>
                <mxCell id="0"/>
                <mxCell id="1" parent="0"/>
                <mxCell id="ESTvd6aHyEVYgbrAlBcp-26" style="edgeStyle=orthogonalEdgeStyle;rounded=0;orthogonalLoop=1;jettySize=auto;html=1;exitX=0;exitY=0.75;exitDx=0;exitDy=0;" parent="1" source="ESTvd6aHyEVYgbrAlBcp-2" target="ESTvd6aHyEVYgbrAlBcp-23" edge="1">
                    <mxGeometry relative="1" as="geometry"/>
                </mxCell>
                <mxCell id="ESTvd6aHyEVYgbrAlBcp-28" style="edgeStyle=orthogonalEdgeStyle;rounded=0;orthogonalLoop=1;jettySize=auto;html=1;exitX=0.25;exitY=1;exitDx=0;exitDy=0;" parent="1" source="ESTvd6aHyEVYgbrAlBcp-2" target="ESTvd6aHyEVYgbrAlBcp-20" edge="1">
                    <mxGeometry relative="1" as="geometry"/>
                </mxCell>
                <mxCell id="ESTvd6aHyEVYgbrAlBcp-29" style="edgeStyle=orthogonalEdgeStyle;rounded=0;orthogonalLoop=1;jettySize=auto;html=1;exitX=0.75;exitY=1;exitDx=0;exitDy=0;" parent="1" source="ESTvd6aHyEVYgbrAlBcp-2" target="ESTvd6aHyEVYgbrAlBcp-16" edge="1">
                    <mxGeometry relative="1" as="geometry"/>
                </mxCell>
                <mxCell id="ESTvd6aHyEVYgbrAlBcp-2" value="PACIENTE" style="rounded=1;whiteSpace=wrap;html=1;" parent="1" vertex="1">
                    <mxGeometry x="-720" y="610" width="120" height="60" as="geometry"/>
                </mxCell>
                <mxCell id="ESTvd6aHyEVYgbrAlBcp-35" style="edgeStyle=orthogonalEdgeStyle;rounded=0;orthogonalLoop=1;jettySize=auto;html=1;exitX=0.25;exitY=0;exitDx=0;exitDy=0;entryX=0.5;entryY=1;entryDx=0;entryDy=0;" parent="1" source="ESTvd6aHyEVYgbrAlBcp-3" target="ESTvd6aHyEVYgbrAlBcp-18" edge="1">
                    <mxGeometry relative="1" as="geometry"/>
                </mxCell>
                <mxCell id="ESTvd6aHyEVYgbrAlBcp-36" style="edgeStyle=orthogonalEdgeStyle;rounded=0;orthogonalLoop=1;jettySize=auto;html=1;exitX=0.75;exitY=0;exitDx=0;exitDy=0;entryX=0.5;entryY=1;entryDx=0;entryDy=0;" parent="1" source="ESTvd6aHyEVYgbrAlBcp-3" target="ESTvd6aHyEVYgbrAlBcp-14" edge="1">
                    <mxGeometry relative="1" as="geometry"/>
                </mxCell>
                <mxCell id="ESTvd6aHyEVYgbrAlBcp-3" value="DOCTOR" style="rounded=1;whiteSpace=wrap;html=1;" parent="1" vertex="1">
                    <mxGeometry x="-470" y="-50" width="120" height="60" as="geometry"/>
                </mxCell>
                <mxCell id="ESTvd6aHyEVYgbrAlBcp-47" style="edgeStyle=orthogonalEdgeStyle;rounded=0;orthogonalLoop=1;jettySize=auto;html=1;exitX=0.75;exitY=0;exitDx=0;exitDy=0;" parent="1" source="ESTvd6aHyEVYgbrAlBcp-4" target="ESTvd6aHyEVYgbrAlBcp-41" edge="1">
                    <mxGeometry relative="1" as="geometry"/>
                </mxCell>
                <mxCell id="ESTvd6aHyEVYgbrAlBcp-50" style="edgeStyle=orthogonalEdgeStyle;rounded=0;orthogonalLoop=1;jettySize=auto;html=1;exitX=0.5;exitY=1;exitDx=0;exitDy=0;entryX=0;entryY=0;entryDx=0;entryDy=0;" parent="1" source="ESTvd6aHyEVYgbrAlBcp-4" target="ESTvd6aHyEVYgbrAlBcp-38" edge="1">
                    <mxGeometry relative="1" as="geometry"/>
                </mxCell>
                <mxCell id="ESTvd6aHyEVYgbrAlBcp-4" value="DEPARAMENTO" style="rounded=1;whiteSpace=wrap;html=1;" parent="1" vertex="1">
                    <mxGeometry x="360" y="569.92" width="120" height="60" as="geometry"/>
                </mxCell>
                <mxCell id="ESTvd6aHyEVYgbrAlBcp-43" style="edgeStyle=orthogonalEdgeStyle;rounded=0;orthogonalLoop=1;jettySize=auto;html=1;exitX=0.25;exitY=0;exitDx=0;exitDy=0;entryX=0.5;entryY=1;entryDx=0;entryDy=0;" parent="1" source="ESTvd6aHyEVYgbrAlBcp-5" target="ESTvd6aHyEVYgbrAlBcp-15" edge="1">
                    <mxGeometry relative="1" as="geometry"/>
                </mxCell>
                <mxCell id="ESTvd6aHyEVYgbrAlBcp-44" style="edgeStyle=orthogonalEdgeStyle;rounded=0;orthogonalLoop=1;jettySize=auto;html=1;exitX=0.75;exitY=0;exitDx=0;exitDy=0;entryX=0;entryY=1;entryDx=0;entryDy=0;" parent="1" source="ESTvd6aHyEVYgbrAlBcp-5" target="ESTvd6aHyEVYgbrAlBcp-19" edge="1">
                    <mxGeometry relative="1" as="geometry"/>
                </mxCell>
                <mxCell id="ESTvd6aHyEVYgbrAlBcp-45" style="edgeStyle=orthogonalEdgeStyle;rounded=0;orthogonalLoop=1;jettySize=auto;html=1;exitX=1;exitY=0.25;exitDx=0;exitDy=0;entryX=0;entryY=0.5;entryDx=0;entryDy=0;" parent="1" source="ESTvd6aHyEVYgbrAlBcp-5" target="ESTvd6aHyEVYgbrAlBcp-10" edge="1">
                    <mxGeometry relative="1" as="geometry"/>
                </mxCell>
                <mxCell id="ESTvd6aHyEVYgbrAlBcp-46" style="edgeStyle=orthogonalEdgeStyle;rounded=0;orthogonalLoop=1;jettySize=auto;html=1;exitX=1;exitY=0.5;exitDx=0;exitDy=0;entryX=0;entryY=0.5;entryDx=0;entryDy=0;" parent="1" source="ESTvd6aHyEVYgbrAlBcp-5" target="ESTvd6aHyEVYgbrAlBcp-42" edge="1">
                    <mxGeometry relative="1" as="geometry"/>
                </mxCell>
                <mxCell id="ESTvd6aHyEVYgbrAlBcp-5" value="ENFERMERA" style="rounded=1;whiteSpace=wrap;html=1;" parent="1" vertex="1">
                    <mxGeometry x="380" y="140" width="120" height="60" as="geometry"/>
                </mxCell>
                <mxCell id="ESTvd6aHyEVYgbrAlBcp-33" style="edgeStyle=orthogonalEdgeStyle;rounded=0;orthogonalLoop=1;jettySize=auto;html=1;exitX=1;exitY=1;exitDx=0;exitDy=0;" parent="1" source="ESTvd6aHyEVYgbrAlBcp-6" target="ESTvd6aHyEVYgbrAlBcp-11" edge="1">
                    <mxGeometry relative="1" as="geometry"/>
                </mxCell>
                <mxCell id="ESTvd6aHyEVYgbrAlBcp-6" value="CITA" style="rounded=1;whiteSpace=wrap;html=1;" parent="1" vertex="1">
                    <mxGeometry x="-170" y="785" width="120" height="60" as="geometry"/>
                </mxCell>
                <mxCell id="ESTvd6aHyEVYgbrAlBcp-8" value="HOSPITAL" style="ellipse;whiteSpace=wrap;html=1;aspect=fixed;" parent="1" vertex="1">
                    <mxGeometry x="-60" y="400" width="110" height="110" as="geometry"/>
                </mxCell>
                <mxCell id="ESTvd6aHyEVYgbrAlBcp-9" value="MOTIVO" style="ellipse;whiteSpace=wrap;html=1;" parent="1" vertex="1">
                    <mxGeometry x="-99.99999999999999" y="1040" width="120" height="80" as="geometry"/>
                </mxCell>
                <mxCell id="ESTvd6aHyEVYgbrAlBcp-10" value="TURNO" style="ellipse;whiteSpace=wrap;html=1;" parent="1" vertex="1">
                    <mxGeometry x="700" y="70" width="120" height="80" as="geometry"/>
                </mxCell>
                <mxCell id="ESTvd6aHyEVYgbrAlBcp-11" value="ESTADO" style="ellipse;whiteSpace=wrap;html=1;" parent="1" vertex="1">
                    <mxGeometry x="79.54" y="995" width="120" height="80" as="geometry"/>
                </mxCell>
                <mxCell id="ESTvd6aHyEVYgbrAlBcp-12" value="ID DE CITA" style="ellipse;whiteSpace=wrap;html=1;" parent="1" vertex="1">
                    <mxGeometry x="-400" y="975" width="120" height="80" as="geometry"/>
                </mxCell>
                <mxCell id="ESTvd6aHyEVYgbrAlBcp-13" value="ID&amp;nbsp; DOCTOR" style="ellipse;whiteSpace=wrap;html=1;" parent="1" vertex="1">
                    <mxGeometry x="-670" y="-260" width="120" height="80" as="geometry"/>
                </mxCell>
                <mxCell id="ESTvd6aHyEVYgbrAlBcp-14" value="ESPECIALIDAD" style="ellipse;whiteSpace=wrap;html=1;" parent="1" vertex="1">
                    <mxGeometry x="-320" y="-300" width="120" height="80" as="geometry"/>
                </mxCell>
                <mxCell id="ESTvd6aHyEVYgbrAlBcp-15" value="ID DE ENFERMERA" style="ellipse;whiteSpace=wrap;html=1;" parent="1" vertex="1">
                    <mxGeometry x="480" y="-60" width="120" height="80" as="geometry"/>
                </mxCell>
                <mxCell id="ESTvd6aHyEVYgbrAlBcp-16" value="FECHA DE NACIMIENTO" style="ellipse;whiteSpace=wrap;html=1;" parent="1" vertex="1">
                    <mxGeometry x="-790" y="870" width="120" height="60" as="geometry"/>
                </mxCell>
                <mxCell id="ESTvd6aHyEVYgbrAlBcp-17" value="TELEFONO" style="ellipse;whiteSpace=wrap;html=1;" parent="1" vertex="1">
                    <mxGeometry x="-190" y="-280" width="120" height="80" as="geometry"/>
                </mxCell>
                <mxCell id="ESTvd6aHyEVYgbrAlBcp-18" value="NOMBRE" style="ellipse;whiteSpace=wrap;html=1;" parent="1" vertex="1">
                    <mxGeometry x="-480" y="-290" width="120" height="80" as="geometry"/>
                </mxCell>
                <mxCell id="ESTvd6aHyEVYgbrAlBcp-19" value="NOMBRE" style="ellipse;whiteSpace=wrap;html=1;" parent="1" vertex="1">
                    <mxGeometry x="610" y="-10" width="120" height="80" as="geometry"/>
                </mxCell>
                <mxCell id="ESTvd6aHyEVYgbrAlBcp-20" value="NOMBRE" style="ellipse;whiteSpace=wrap;html=1;" parent="1" vertex="1">
                    <mxGeometry x="-910" y="785" width="120" height="80" as="geometry"/>
                </mxCell>
                <mxCell id="ESTvd6aHyEVYgbrAlBcp-21" value="FECHA&amp;nbsp;" style="ellipse;whiteSpace=wrap;html=1;" parent="1" vertex="1">
                    <mxGeometry x="-280.00000000000006" y="1020" width="120" height="80" as="geometry"/>
                </mxCell>
                <mxCell id="ESTvd6aHyEVYgbrAlBcp-22" value="DIRECCION" style="ellipse;whiteSpace=wrap;html=1;" parent="1" vertex="1">
                    <mxGeometry x="-910" y="480" width="120" height="80" as="geometry"/>
                </mxCell>
                <mxCell id="ESTvd6aHyEVYgbrAlBcp-23" value="ID PACIENTE" style="ellipse;whiteSpace=wrap;html=1;" parent="1" vertex="1">
                    <mxGeometry x="-970" y="660" width="120" height="80" as="geometry"/>
                </mxCell>
                <mxCell id="ESTvd6aHyEVYgbrAlBcp-27" style="edgeStyle=orthogonalEdgeStyle;rounded=0;orthogonalLoop=1;jettySize=auto;html=1;exitX=0;exitY=0.25;exitDx=0;exitDy=0;entryX=0.857;entryY=0.957;entryDx=0;entryDy=0;entryPerimeter=0;" parent="1" source="ESTvd6aHyEVYgbrAlBcp-2" target="ESTvd6aHyEVYgbrAlBcp-22" edge="1">
                    <mxGeometry relative="1" as="geometry"/>
                </mxCell>
                <mxCell id="ESTvd6aHyEVYgbrAlBcp-30" style="edgeStyle=orthogonalEdgeStyle;rounded=0;orthogonalLoop=1;jettySize=auto;html=1;exitX=0;exitY=0.75;exitDx=0;exitDy=0;entryX=0.747;entryY=0.035;entryDx=0;entryDy=0;entryPerimeter=0;" parent="1" source="ESTvd6aHyEVYgbrAlBcp-6" edge="1">
                    <mxGeometry relative="1" as="geometry">
                        <mxPoint x="-320.3600000000002" y="982.8" as="targetPoint"/>
                    </mxGeometry>
                </mxCell>
                <mxCell id="ESTvd6aHyEVYgbrAlBcp-31" style="edgeStyle=orthogonalEdgeStyle;rounded=0;orthogonalLoop=1;jettySize=auto;html=1;exitX=0.25;exitY=1;exitDx=0;exitDy=0;entryX=0.72;entryY=0.012;entryDx=0;entryDy=0;entryPerimeter=0;" parent="1" source="ESTvd6aHyEVYgbrAlBcp-6" target="ESTvd6aHyEVYgbrAlBcp-21" edge="1">
                    <mxGeometry relative="1" as="geometry"/>
                </mxCell>
                <mxCell id="ESTvd6aHyEVYgbrAlBcp-32" style="edgeStyle=orthogonalEdgeStyle;rounded=0;orthogonalLoop=1;jettySize=auto;html=1;exitX=0.75;exitY=1;exitDx=0;exitDy=0;entryX=0.369;entryY=0.023;entryDx=0;entryDy=0;entryPerimeter=0;" parent="1" source="ESTvd6aHyEVYgbrAlBcp-6" target="ESTvd6aHyEVYgbrAlBcp-9" edge="1">
                    <mxGeometry relative="1" as="geometry"/>
                </mxCell>
                <mxCell id="ESTvd6aHyEVYgbrAlBcp-34" style="edgeStyle=orthogonalEdgeStyle;rounded=0;orthogonalLoop=1;jettySize=auto;html=1;exitX=0;exitY=0.25;exitDx=0;exitDy=0;entryX=0.623;entryY=0.984;entryDx=0;entryDy=0;entryPerimeter=0;" parent="1" source="ESTvd6aHyEVYgbrAlBcp-3" target="ESTvd6aHyEVYgbrAlBcp-13" edge="1">
                    <mxGeometry relative="1" as="geometry"/>
                </mxCell>
                <mxCell id="ESTvd6aHyEVYgbrAlBcp-37" style="edgeStyle=orthogonalEdgeStyle;rounded=0;orthogonalLoop=1;jettySize=auto;html=1;exitX=1;exitY=0.25;exitDx=0;exitDy=0;entryX=0.389;entryY=0.998;entryDx=0;entryDy=0;entryPerimeter=0;" parent="1" source="ESTvd6aHyEVYgbrAlBcp-3" target="ESTvd6aHyEVYgbrAlBcp-17" edge="1">
                    <mxGeometry relative="1" as="geometry"/>
                </mxCell>
                <mxCell id="ESTvd6aHyEVYgbrAlBcp-38" value="UBICACION" style="ellipse;whiteSpace=wrap;html=1;" parent="1" vertex="1">
                    <mxGeometry x="480" y="839.92" width="120" height="80" as="geometry"/>
                </mxCell>
                <mxCell id="ESTvd6aHyEVYgbrAlBcp-39" value="DESCRIPCION" style="ellipse;whiteSpace=wrap;html=1;" parent="1" vertex="1">
                    <mxGeometry x="620" y="779.92" width="120" height="80" as="geometry"/>
                </mxCell>
                <mxCell id="ESTvd6aHyEVYgbrAlBcp-40" value="NOMBRE" style="ellipse;whiteSpace=wrap;html=1;" parent="1" vertex="1">
                    <mxGeometry x="720" y="679.92" width="120" height="80" as="geometry"/>
                </mxCell>
                <mxCell id="ESTvd6aHyEVYgbrAlBcp-41" value="ID DEPARTAMENTO" style="ellipse;whiteSpace=wrap;html=1;" parent="1" vertex="1">
                    <mxGeometry x="740" y="569.92" width="120" height="80" as="geometry"/>
                </mxCell>
                <mxCell id="ESTvd6aHyEVYgbrAlBcp-42" value="TELEFONO" style="ellipse;whiteSpace=wrap;html=1;" parent="1" vertex="1">
                    <mxGeometry x="740" y="170" width="120" height="80" as="geometry"/>
                </mxCell>
                <mxCell id="ESTvd6aHyEVYgbrAlBcp-48" style="edgeStyle=orthogonalEdgeStyle;rounded=0;orthogonalLoop=1;jettySize=auto;html=1;exitX=1;exitY=0.25;exitDx=0;exitDy=0;entryX=0.028;entryY=0.271;entryDx=0;entryDy=0;entryPerimeter=0;" parent="1" source="ESTvd6aHyEVYgbrAlBcp-4" target="ESTvd6aHyEVYgbrAlBcp-40" edge="1">
                    <mxGeometry relative="1" as="geometry">
                        <Array as="points">
                            <mxPoint x="480" y="629.92"/>
                            <mxPoint x="610" y="629.92"/>
                            <mxPoint x="610" y="701.92"/>
                        </Array>
                    </mxGeometry>
                </mxCell>
                <mxCell id="ESTvd6aHyEVYgbrAlBcp-49" style="edgeStyle=orthogonalEdgeStyle;rounded=0;orthogonalLoop=1;jettySize=auto;html=1;exitX=0.75;exitY=1;exitDx=0;exitDy=0;entryX=0.219;entryY=0.092;entryDx=0;entryDy=0;entryPerimeter=0;" parent="1" source="ESTvd6aHyEVYgbrAlBcp-4" target="ESTvd6aHyEVYgbrAlBcp-39" edge="1">
                    <mxGeometry relative="1" as="geometry">
                        <Array as="points">
                            <mxPoint x="470" y="629.92"/>
                            <mxPoint x="470" y="729.92"/>
                            <mxPoint x="646" y="729.92"/>
                        </Array>
                    </mxGeometry>
                </mxCell>
                <mxCell id="12" style="edgeStyle=none;html=1;exitX=1;exitY=0.5;exitDx=0;exitDy=0;entryX=0;entryY=0.5;entryDx=0;entryDy=0;fontSize=5;" parent="1" source="2" target="ESTvd6aHyEVYgbrAlBcp-5" edge="1">
                    <mxGeometry relative="1" as="geometry"/>
                </mxCell>
                <mxCell id="2" value="Relación entre Enfermera y Departamento, indicando en qué departamento está asignada cada enfermera" style="rhombus;whiteSpace=wrap;html=1;" parent="1" vertex="1">
                    <mxGeometry x="89.9" y="50" width="210" height="230" as="geometry"/>
                </mxCell>
                <mxCell id="9" style="edgeStyle=none;html=1;exitX=1;exitY=0.5;exitDx=0;exitDy=0;entryX=0;entryY=0.5;entryDx=0;entryDy=0;fontSize=5;" parent="1" source="3" target="ESTvd6aHyEVYgbrAlBcp-4" edge="1">
                    <mxGeometry relative="1" as="geometry"/>
                </mxCell>
                <mxCell id="11" style="edgeStyle=none;html=1;exitX=0.5;exitY=0;exitDx=0;exitDy=0;entryX=0.558;entryY=0.988;entryDx=0;entryDy=0;entryPerimeter=0;fontSize=5;" parent="1" source="3" target="2" edge="1">
                    <mxGeometry relative="1" as="geometry"/>
                </mxCell>
                <mxCell id="3" value="podría ser uno a muchos, ya que un doctor pertenece a un solo departamento, pero un departamento puede tener muchos doctores." style="rhombus;whiteSpace=wrap;html=1;" parent="1" vertex="1">
                    <mxGeometry x="150" y="519.96" width="170" height="179.92" as="geometry"/>
                </mxCell>
                <mxCell id="4" value="" style="rhombus;whiteSpace=wrap;html=1;" parent="1" vertex="1">
                    <mxGeometry x="-220" y="550" width="180.36" height="160" as="geometry"/>
                </mxCell>
                <mxCell id="7" style="edgeStyle=none;html=1;exitX=0.5;exitY=0;exitDx=0;exitDy=0;fontSize=5;" parent="1" source="5" target="ESTvd6aHyEVYgbrAlBcp-3" edge="1">
                    <mxGeometry relative="1" as="geometry"/>
                </mxCell>
                <mxCell id="8" style="edgeStyle=none;html=1;exitX=0;exitY=1;exitDx=0;exitDy=0;fontSize=5;" parent="1" source="5" target="6" edge="1">
                    <mxGeometry relative="1" as="geometry"/>
                </mxCell>
                <mxCell id="5" value="&lt;font style=&quot;font-size: 5px;&quot;&gt;podría ser muchos a muchos, ya que un paciente podría ser tratado por varios doctores y un doctor podría tratar a varios pacientes.&lt;/font&gt;" style="rhombus;whiteSpace=wrap;html=1;" parent="1" vertex="1">
                    <mxGeometry x="-470" y="110.00000000000003" width="140" height="150" as="geometry"/>
                </mxCell>
                <mxCell id="13" style="edgeStyle=none;html=1;exitX=0;exitY=0.5;exitDx=0;exitDy=0;entryX=1;entryY=0.5;entryDx=0;entryDy=0;fontSize=5;" parent="1" source="6" target="ESTvd6aHyEVYgbrAlBcp-2" edge="1">
                    <mxGeometry relative="1" as="geometry"/>
                </mxCell>
                <mxCell id="6" value="un doctor puede tratar a varios pacientes" style="rhombus;whiteSpace=wrap;html=1;" parent="1" vertex="1">
                    <mxGeometry x="-570" y="540" width="140" height="180" as="geometry"/>
                </mxCell>
            </root>
        </mxGraphModel>
    </diagram>
</mxfile>